<svg width="24" height="24" viewBox="0 0 24 24" fill="none" xmlns="http://www.w3.org/2000/svg">
<path d="M10 7.5V16H16.2929L20.5 20.2071L20.5001 16H22V7.5H10ZM21 15H19.5001L19.5 17.7929L16.7071 15H11V8.5H21V15ZM7.29291 12H9V13H7.70709L3.5 17.2071L3.49994 13H2V4H14.5V6.5H13.5V5H3V12H4.49994L4.5 14.7929L7.29291 12ZM15.1873 12.8528H16.6474L16.856 13.5H17.9738L16.6207 9.67603H15.3799L14 13.5H14.9734L15.1873 12.8528ZM15.9254 10.6173L16.412 12.1095H15.428L15.9254 10.6173ZM6.81345 7.90464H8.28897L8.27561 7.94942C8.17046 8.31472 8.07335 8.58254 7.98424 8.7529C7.77931 9.13751 7.50755 9.47647 7.16897 9.76976C7.59665 9.9805 8.19096 10.1728 8.95189 10.3467L9 10.3572L8.97594 10.3994C8.89397 10.5399 8.84585 10.6259 8.8316 10.6575C8.81734 10.6891 8.79774 10.7489 8.77279 10.8367C8.75854 10.8841 8.74428 10.9315 8.73002 10.9789L8.69795 10.9684C8.20254 10.8191 7.82208 10.6931 7.55656 10.5904C7.29104 10.4876 6.96938 10.3405 6.59159 10.1491C6.18707 10.3511 5.81819 10.5126 5.48495 10.6338C5.15171 10.755 4.74095 10.8771 4.25268 11L4.24466 10.9631C4.21793 10.8402 4.20011 10.7664 4.1912 10.7418C4.18229 10.7172 4.15823 10.6725 4.11902 10.6075C4.08338 10.5478 4.04151 10.4758 3.99339 10.3915L4.04151 10.3809C4.83985 10.2264 5.49386 10.0253 6.00352 9.77766C5.63286 9.47032 5.33793 9.04795 5.11874 8.51054H4.56275V7.90727H6.15321V7.42782H4.11368V6.79031H6.15321V6H6.81345V6.79031H8.91179V7.42782H6.81345V7.90464ZM5.76562 8.51054C5.96699 8.92677 6.24142 9.24201 6.58892 9.45627C6.75464 9.34738 6.91369 9.20688 7.06605 9.03477C7.21842 8.86266 7.33915 8.68792 7.42825 8.51054H5.76562Z" fill="black"/>
</svg>
